<?xml version="1.0" standalone="no"?><svg xmlns="http://www.w3.org/2000/svg" viewBox="0 0 1440 320"><path fill="#273036" fill-opacity="1" d="M0,32L26.7,48C53.3,64,107,96,160,117.3C213.3,139,267,149,320,138.7C373.3,128,427,96,480,85.3C533.3,75,587,85,640,101.3C693.3,117,747,139,800,133.3C853.3,128,907,96,960,80C1013.3,64,1067,64,1120,69.3C1173.3,75,1227,85,1280,85.3C1333.3,85,1387,75,1413,69.3L1440,64L1440,320L1413.3,320C1386.7,320,1333,320,1280,320C1226.7,320,1173,320,1120,320C1066.7,320,1013,320,960,320C906.7,320,853,320,800,320C746.7,320,693,320,640,320C586.7,320,533,320,480,320C426.7,320,373,320,320,320C266.7,320,213,320,160,320C106.7,320,53,320,27,320L0,320Z"></path></svg>