<?xml version="1.0" standalone="no"?><svg xmlns="http://www.w3.org/2000/svg" viewBox="0 0 1440 320"><path fill="#273036" fill-opacity="1" d="M0,32L26.7,37.3C53.3,43,107,53,160,80C213.3,107,267,149,320,154.7C373.3,160,427,128,480,133.3C533.3,139,587,181,640,202.7C693.3,224,747,224,800,218.7C853.3,213,907,203,960,208C1013.3,213,1067,235,1120,218.7C1173.3,203,1227,149,1280,138.7C1333.3,128,1387,160,1413,176L1440,192L1440,320L1413.3,320C1386.7,320,1333,320,1280,320C1226.7,320,1173,320,1120,320C1066.7,320,1013,320,960,320C906.7,320,853,320,800,320C746.7,320,693,320,640,320C586.7,320,533,320,480,320C426.7,320,373,320,320,320C266.7,320,213,320,160,320C106.7,320,53,320,27,320L0,320Z"></path></svg>