<?xml version="1.0" standalone="no"?><svg xmlns="http://www.w3.org/2000/svg" viewBox="0 0 1440 320"><path fill="#273036" fill-opacity="1" d="M0,32L26.7,48C53.3,64,107,96,160,117.3C213.3,139,267,149,320,138.7C373.3,128,427,96,480,85.3C533.3,75,587,85,640,101.3C693.3,117,747,139,800,133.3C853.3,128,907,96,960,80C1013.3,64,1067,64,1120,69.3C1173.3,75,1227,85,1280,85.3C1333.3,85,1387,75,1413,69.3L1440,64L1440,0L1413.3,0C1386.7,0,1333,0,1280,0C1226.7,0,1173,0,1120,0C1066.7,0,1013,0,960,0C906.7,0,853,0,800,0C746.7,0,693,0,640,0C586.7,0,533,0,480,0C426.7,0,373,0,320,0C266.7,0,213,0,160,0C106.7,0,53,0,27,0L0,0Z"></path></svg>